<?xml version="1.0" encoding="UTF-8" standalone="no"?>
<svg
   width="250mm"
   height="58.20546mm"
   viewBox="0 0 150000.19 34923.263"
   version="1.1"
   id="svg828"
   sodipodi:docname="Logo_QR_STUDIO.svg"
   inkscape:version="1.1.2 (0a00cf5339, 2022-02-04)"
   inkscape:export-filename="/media/extra/wrk/dev/qr-studio/Logo_QR_STUDIO.png"
   inkscape:export-xdpi="96"
   inkscape:export-ydpi="96"
   xmlns:inkscape="http://www.inkscape.org/namespaces/inkscape"
   xmlns:sodipodi="http://sodipodi.sourceforge.net/DTD/sodipodi-0.dtd"
   xmlns="http://www.w3.org/2000/svg"
   xmlns:svg="http://www.w3.org/2000/svg">
  <defs
     id="defs832" />
  <sodipodi:namedview
     id="namedview830"
     pagecolor="#ffffff"
     bordercolor="#666666"
     borderopacity="1.0"
     inkscape:pageshadow="2"
     inkscape:pageopacity="0.0"
     inkscape:pagecheckerboard="0"
     inkscape:document-units="mm"
     showgrid="true"
     showguides="true"
     inkscape:guide-bbox="true"
     inkscape:zoom="1.4142136"
     inkscape:cx="348.60365"
     inkscape:cy="104.6518"
     inkscape:window-width="3440"
     inkscape:window-height="1299"
     inkscape:window-x="0"
     inkscape:window-y="32"
     inkscape:window-maximized="1"
     inkscape:current-layer="layer1">
    <inkscape:grid
       type="xygrid"
       id="grid13689" />
  </sodipodi:namedview>
  <g
     inkscape:groupmode="layer"
     id="layer6"
     inkscape:label="Layer 0"
     style="display:inline"
     transform="translate(13989.032,20213.157)">
    <text
       xml:space="preserve"
       style="font-style:normal;font-variant:normal;font-weight:normal;font-stretch:normal;font-size:21078.7px;line-height:1.25;font-family:Inter;-inkscape-font-specification:Inter;fill:#3a3c3a;fill-opacity:1;stroke-width:219.569"
       x="24665.738"
       y="3371.8369"
       id="text81026"
       inkscape:export-filename="/media/extra/wrk/dev/qr-studio/Logo_QR_STUDIO.png"
       inkscape:export-xdpi="96"
       inkscape:export-ydpi="96"><tspan
         sodipodi:role="line"
         id="tspan81024"
         style="font-style:normal;font-variant:normal;font-weight:normal;font-stretch:normal;font-size:21078.7px;font-family:Montserrat;-inkscape-font-specification:Montserrat;fill:#3a3c3a;fill-opacity:1;stroke-width:219.569"
         x="24665.738"
         y="3371.8369"><tspan
   style="font-style:normal;font-variant:normal;font-weight:bold;font-stretch:normal;font-family:Montserrat;-inkscape-font-specification:'Montserrat Bold';fill:#3a3c3a;fill-opacity:1;stroke-width:219.569"
   id="tspan11811">QR</tspan> Studio</tspan></text>
  </g>
  <g
     inkscape:groupmode="layer"
     id="layer2"
     inkscape:label="Layer 1"
     style="display:inline"
     transform="translate(13989.032,20213.157)">
    <path
       id="Seleção #3"
       fill="none"
       stroke="#000000"
       stroke-width="68.4566"
       d="m 15424.105,-9921.4643 c 0,0 5476.555,0 5476.555,0 0,0 0,14444.4126 0,14444.4126 0,0 -5476.555,0 -5476.555,0 0,0 0,-14444.4126 0,-14444.4126 z m -29368.022,0 c 0,0 5476.5545,0 5476.5545,0 0,0 0,14444.4126 0,14444.4126 0,0 -5476.5545,0 -5476.5545,0 0,0 0,-14444.4126 0,-14444.4126 z M -3812.2912,-20121.547 c 0,0 14444.4122,0 14444.4122,0 0,0 0,5408.099 0,5408.099 0,0 -14444.4122,0 -14444.4122,0 0,0 0,-5408.099 0,-5408.099 z m 0,29368.0231 c 0,0 14444.4122,0 14444.4122,0 0,0 0,5408.0979 0,5408.0979 0,0 -14444.4122,0 -14444.4122,0 0,0 0,-5408.0979 0,-5408.0979 z"
       style="fill:#3a3c3a;fill-opacity:1" />
  </g>
  <g
     inkscape:groupmode="layer"
     id="layer1"
     inkscape:label="Layer 2"
     style="display:inline"
     transform="translate(13989.032,20213.157)">
    <path
       id="Seleção"
       style="fill:#3a3c3a;fill-opacity:1"
       d="M 13.220703,0.62890625 C 11.25001,1.2153748 9.8364538,1.6632982 8.046875,2.6464844 -0.00839676,7.0622205 0.28515625,14.316263 0.28515625,22.138672 v 11.210937 c 0,6.567545 -0.91019417,12.82021 3.92382815,18.111329 5.3040626,5.799967 10.5775776,5.175781 17.6367186,5.175781 H 39.957031 C 49.81913,56.619478 56.326512,50.112098 56.34375,40.25 V 16.533203 c -0.0086,-2.20355 -0.1477,-3.503046 -0.902344,-5.607422 C 53.164544,4.5738524 47.523895,0.65909834 40.818359,0.62890625 H 36.076172 26.589844 Z M 37.464844,11.318359 c 1.841323,0.01144 3.743283,0.170597 5.080078,0.941407 3.178122,1.828394 3.444905,4.441041 3.449219,7.722656 V 35.9375 c 0,2.397603 0.309396,5.661652 -0.902344,7.761719 -1.82839,3.178112 -4.441042,3.446863 -7.722656,3.451172 H 18.396484 C 15.11487,47.133137 12.444252,46.536254 10.878906,43.267578 9.9345234,41.301193 10.203125,37.74391 10.203125,35.505859 V 19.982422 c 0.0086,-4.225992 0.706344,-6.964814 5.173828,-8.396484 l 18.974609,-0.228516 c 0.924976,0 2.008488,-0.04593 3.113282,-0.03906 z m -5.269532,7.800782 c -2.686525,-0.03449 -8.865893,-0.206038 -11.203124,0.28125 -1.142746,0.504534 -1.75551,0.757982 -2.402344,1.917968 -1.00044,1.806833 -0.655186,9.577578 -0.625,12.03125 0.02588,1.677466 0.106898,3.255453 1.460937,4.462891 1.970694,1.759393 9.124856,1.148871 11.90625,1.144531 1.418729,-0.0043 2.984485,0.08457 4.269531,-0.626953 3.221248,-1.789585 2.203529,-9.430381 2.199219,-12.742187 -0.0043,-1.750764 0.112285,-3.595758 -1.142578,-5.00586 -1.207427,-1.354039 -2.785429,-1.437007 -4.462891,-1.46289 z"
       transform="matrix(158.7502,0,0,158.7502,-13989.032,-20213.185)"
       inkscape:export-filename="/media/extra/wrk/dev/qr-studio/Seleção.png"
       inkscape:export-xdpi="96"
       inkscape:export-ydpi="96" />
    <path
       id="Seleção-9"
       style="display:inline;fill:#3a3c3a;fill-opacity:1"
       d="m 176.51367,0.21484375 c -1.9707,0.58646855 -3.38621,1.03635135 -5.17578,2.01953125 -8.05527,4.4157425 -7.76172,11.667838 -7.76172,19.490234 V 32.9375 c 0,6.567544 -0.91019,12.820217 3.92383,18.111328 5.30406,5.799974 10.57953,5.173828 17.63867,5.173828 H 203.25 c 9.8621,-0.01725 16.36947,-6.524621 16.38672,-16.386718 V 16.119141 c -0.009,-2.20355 -0.14769,-3.501094 -0.90234,-5.605469 C 216.4575,4.1617428 210.81686,0.24503584 204.11133,0.21484375 h -4.74219 -9.48828 z M 200.98438,11.177734 c 1.84132,0.01087 3.74328,0.170597 5.08007,0.941407 3.17813,1.828388 3.44491,4.442994 3.44922,7.724609 v 15.955078 c 0,2.397603 0.31137,5.661659 -0.90039,7.761719 -1.82838,3.178125 -4.44299,3.444897 -7.72461,3.449219 h -18.97265 c -3.28162,-0.01725 -5.95223,-0.612177 -7.51758,-3.88086 -0.94437,-1.966391 -0.67578,-5.523668 -0.67578,-7.761718 V 19.84375 c 0.009,-4.225998 0.70633,-6.96482 5.17382,-8.396484 l 18.97461,-0.228516 c 0.92498,0 2.00849,-0.04753 3.11329,-0.04102 z m -5.26954,7.802735 c -2.68653,-0.0345 -8.86589,-0.206038 -11.20312,0.28125 -1.14276,0.504516 -1.75552,0.757976 -2.40234,1.917969 -1.00044,1.806838 -0.65518,9.577577 -0.625,12.03125 0.0259,1.677453 0.10689,3.255465 1.46093,4.46289 1.97069,1.759393 9.12485,1.146918 11.90625,1.142578 1.41872,-0.0043 2.98449,0.08652 4.26953,-0.625 3.22124,-1.789579 2.20356,-9.43038 2.19922,-12.742187 -0.004,-1.750763 0.11228,-3.597704 -1.14258,-5.007813 -1.20742,-1.354039 -2.78543,-1.435066 -4.46289,-1.460937 z"
       transform="matrix(158.7502,0,0,158.7502,-13989.032,-20213.185)"
       inkscape:export-filename="/media/extra/wrk/dev/qr-studio/Seleção.png"
       inkscape:export-xdpi="96"
       inkscape:export-ydpi="96" />
    <path
       id="Seleção-9-1"
       style="display:inline;fill:#3a3c3a;fill-opacity:1"
       d="m 13.53125,163.66992 c -1.970694,0.58647 -3.386202,1.03439 -5.1757812,2.01758 C 0.30019694,170.10323 0.59375,177.35728 0.59375,185.17969 v 11.21093 c 0,6.56756 -0.91019412,12.82021 3.9238281,18.11133 5.3040563,5.79997 10.5795379,5.17578 17.6386719,5.17578 h 18.111328 c 9.862097,-0.0172 16.367528,-6.52462 16.384766,-16.38671 v -23.7168 c -0.0086,-2.20356 -0.145748,-3.50305 -0.900391,-5.60742 -2.276865,-6.35193 -7.917511,-10.26669 -14.623047,-10.29688 h -4.74414 -9.486328 z M 37.75,174.53906 c 1.841322,0.0114 3.743282,0.1706 5.080078,0.94141 3.178123,1.82839 3.446858,4.44104 3.451172,7.72265 v 15.95508 c 0,2.39761 0.309396,5.66166 -0.902344,7.76172 -1.82839,3.17813 -4.441038,3.44686 -7.722656,3.45117 H 18.681641 c -3.281615,-0.0173 -5.950279,-0.61413 -7.515625,-3.88281 -0.944377,-1.96638 -0.677735,-5.52367 -0.677735,-7.76172 v -15.52344 c 0.0086,-4.22599 0.708304,-6.96481 5.175781,-8.39648 l 18.972657,-0.22852 c 0.924976,0 2.008488,-0.0459 3.113281,-0.0391 z m -5.267578,7.80078 c -2.686527,-0.0345 -8.86784,-0.20603 -11.205078,0.28125 -1.142739,0.50454 -1.753551,0.75798 -2.400391,1.91797 -1.00044,1.80683 -0.655186,9.57759 -0.625,12.03125 0.02587,1.67747 0.106892,3.25546 1.460938,4.46289 1.970693,1.75939 9.124855,1.14884 11.90625,1.14453 1.418729,-0.004 2.984483,0.0846 4.269531,-0.62695 3.221245,-1.78958 2.203529,-9.43038 2.199219,-12.74219 -0.0043,-1.75077 0.112285,-3.59575 -1.142579,-5.00586 -1.207427,-1.35404 -2.785428,-1.43701 -4.46289,-1.46289 z"
       transform="matrix(158.7502,0,0,158.7502,-13989.032,-20213.185)"
       inkscape:export-filename="/media/extra/wrk/dev/qr-studio/Seleção.png"
       inkscape:export-xdpi="96"
       inkscape:export-ydpi="96" />
    <path
       id="Seleção-9-1-2"
       style="display:inline;fill:#3a3c3a;fill-opacity:1"
       d="m 176.76758,163.74609 c -1.9707,0.58647 -3.38423,1.03439 -5.17383,2.01758 -8.05526,4.41574 -7.76172,11.66978 -7.76172,19.49219 v 11.21094 c 0,6.56755 -0.9102,12.8202 3.92383,18.11132 5.30405,5.79998 10.57758,5.17579 17.63672,5.17579 h 18.11133 c 9.86209,-0.0173 16.36948,-6.52462 16.38671,-16.38672 v -23.7168 c -0.009,-2.20355 -0.14771,-3.50305 -0.90234,-5.60742 -2.27688,-6.35193 -7.91555,-10.26669 -14.62109,-10.29688 h -4.74414 -9.48633 z m 24.23047,10.89649 c 1.84132,0.0114 3.74328,0.17059 5.08007,0.9414 3.17812,1.82839 3.44686,4.44105 3.45118,7.72266 v 15.95508 c 0,2.39761 0.30937,5.66166 -0.90235,7.76172 -1.82839,3.17812 -4.44104,3.44685 -7.72265,3.45117 h -18.97461 c -3.28162,-0.0172 -5.95029,-0.61218 -7.51563,-3.88086 -0.94439,-1.96638 -0.67773,-5.52367 -0.67773,-7.76172 v -15.52539 c 0.009,-4.226 0.7083,-6.96482 5.17578,-8.39648 l 18.97266,-0.22852 c 0.92497,0 2.00848,-0.0459 3.11328,-0.0391 z m -5.26758,7.80273 c -2.68653,-0.0345 -8.86784,-0.20798 -11.20508,0.2793 -1.14275,0.50453 -1.75355,0.75993 -2.40039,1.91992 -1.00045,1.80683 -0.65518,9.57759 -0.625,12.03125 0.0259,1.67746 0.1069,3.25547 1.46094,4.46289 1.97068,1.75939 9.12485,1.14689 11.90625,1.14258 1.41872,-0.004 2.98448,0.0865 4.26953,-0.625 3.22124,-1.78959 2.20356,-9.43234 2.19922,-12.74414 -0.004,-1.75077 0.11228,-3.59576 -1.14258,-5.00586 -1.20743,-1.35404 -2.78542,-1.43506 -4.46289,-1.46094 z"
       transform="matrix(158.7502,0,0,158.7502,-13989.032,-20213.185)"
       inkscape:export-filename="/media/extra/wrk/dev/qr-studio/Seleção.png"
       inkscape:export-xdpi="96"
       inkscape:export-ydpi="96" />
    <path
       id="Seleção #5-2"
       style="display:inline;fill:#3a3c3a;fill-opacity:1"
       d="M 59.792969,60.517578 V 160.13086 H 159.40625 V 60.517578 Z m 8.625,8.625 H 150.78125 V 151.50586 H 68.417969 Z"
       transform="matrix(158.7502,0,0,158.7502,-13989.032,-20213.185)"
       inkscape:export-filename="/media/extra/wrk/dev/qr-studio/Seleção.png"
       inkscape:export-xdpi="96"
       inkscape:export-ydpi="96" />
  </g>
  <g
     inkscape:groupmode="layer"
     id="layer3"
     inkscape:label="Layer 3"
     style="display:none"
     transform="translate(13989.032,20213.157)" />
  <g
     inkscape:groupmode="layer"
     id="layer4"
     inkscape:label="Layer 4"
     style="display:inline"
     transform="translate(13989.032,20213.157)" />
</svg>
